<?xml version="1.0" standalone="no"?><!DOCTYPE svg PUBLIC "-//W3C//DTD SVG 1.1//EN" "http://www.w3.org/Graphics/SVG/1.1/DTD/svg11.dtd"><svg class="icon" width="200px" height="199.61px" viewBox="0 0 1026 1024" version="1.1" xmlns="http://www.w3.org/2000/svg"><path fill="#333333" d="M797.952 1002.112H109.312A109.44 109.44 0 0 1 0 892.8V502.208c0-62.208 51.2-116.8 109.312-116.8h109.888c138.816 0 243.456-106.496 243.456-247.744v-28.8C462.656 50.88 515.2 0 575.104 0h2.944c45.952 0 88.256 30.464 102.848 74.048l7.168 20.288a356.928 356.928 0 0 1 8.384 200.64l-3.84 15.872c-1.28 10.56-6.336 29.952-15.424 48.832h241.728c33.856 0 65.28 15.936 86.08 43.584 21.12 28.032 28.096 64.576 18.56 97.92l-120.256 419.264a109.696 109.696 0 0 1-105.344 81.664zM109.312 436.8c-30.208 0-57.984 31.104-57.984 65.408v390.592c0 31.936 26.048 57.984 57.984 57.984h688.64a59.136 59.136 0 0 0 56.128-44.096l120.128-419.776a59.072 59.072 0 0 0-10.176-52.736 56.064 56.064 0 0 0-44.992-23.04H616.704V359.68c7.296-4.096 23.744-40.704 24.832-53.504l0.704-5.312 4.288-18.048a306.88 306.88 0 0 0-6.72-171.648l-7.424-20.288a59.008 59.008 0 0 0-54.336-39.552h-2.944c-31.488 0-61.12 28.032-61.12 57.536v28.8c0 170.56-126.784 299.136-294.784 299.136H109.312z"  /><path fill="#333333" d="M231.232 976.448a25.6 25.6 0 0 1-25.664-25.6V436.8a25.6 25.6 0 1 1 51.328 0v513.984a25.6 25.6 0 0 1-25.664 25.664z"  /></svg>