<?xml version="1.0" standalone="no"?><!DOCTYPE svg PUBLIC "-//W3C//DTD SVG 1.1//EN" "http://www.w3.org/Graphics/SVG/1.1/DTD/svg11.dtd"><svg t="1556880123791" class="icon" style="" viewBox="0 0 1024 1024" version="1.1" xmlns="http://www.w3.org/2000/svg" p-id="2058" xmlns:xlink="http://www.w3.org/1999/xlink" width="200" height="200"><defs><style type="text/css"></style></defs><path d="M674.051 396.451c0-89.518-72.57-162.086-162.09-162.086-89.518 0-162.086 72.569-162.086 162.086 0 89.521 72.569 162.088 162.086 162.088 89.519 0 162.09-72.567 162.09-162.088z m-288.159 0c0-69.624 56.443-126.069 126.069-126.069S638.03 326.826 638.03 396.451c0 69.626-56.443 126.07-126.069 126.07s-126.069-56.444-126.069-126.07z m414.227 0c0-159.144-129.013-288.155-288.158-288.155-159.143 0-288.157 129.011-288.157 288.155 0 159.145 288.157 504.276 288.157 504.276s288.158-345.131 288.158-504.276zM511.961 144.315c139.252 0 252.137 112.884 252.137 252.135 0 139.253-252.137 450.247-252.137 450.247S259.824 535.704 259.824 396.451c0-139.252 112.885-252.136 252.137-252.136z m127.375 640.966a2690.456 2690.456 0 0 1-22.977 31.055c76.901 8.857 129.729 27.188 129.729 48.369 0 29.84-104.822 54.031-234.127 54.031-129.303 0-234.125-24.191-234.125-54.031 0-21.181 52.827-39.513 129.727-48.369a2673.247 2673.247 0 0 1-22.977-31.055c-84.969 15.172-142.771 45.046-142.771 79.424 0 49.732 120.95 90.051 270.147 90.051 149.199 0 270.147-40.318 270.147-90.051-0.002-34.378-57.803-64.252-142.773-79.424z" p-id="2059"></path></svg>