<?xml version="1.0" standalone="no"?><!DOCTYPE svg PUBLIC "-//W3C//DTD SVG 1.1//EN" "http://www.w3.org/Graphics/SVG/1.1/DTD/svg11.dtd"><svg t="1556871177582" class="icon" style="" viewBox="0 0 1024 1024" version="1.1" xmlns="http://www.w3.org/2000/svg" p-id="6325" xmlns:xlink="http://www.w3.org/1999/xlink" width="200" height="200"><defs><style type="text/css"></style></defs><path d="M514.048 70.144c244.224 0 442.88 198.656 442.88 442.88s-198.656 442.88-442.88 442.88-442.88-198.656-442.88-442.88 198.656-442.88 442.88-442.88m0-55.808c-275.456 0-499.2 223.232-499.2 499.2s223.232 499.2 499.2 499.2 499.2-223.232 499.2-499.2-223.744-499.2-499.2-499.2z" p-id="6326"></path><path d="M745.984 544.768H282.112c-17.408 0-31.232-14.336-31.232-31.232 0-17.408 14.336-31.232 31.232-31.232h463.872c17.408 0 31.232 14.336 31.232 31.232s-14.336 31.232-31.232 31.232z" p-id="6327"></path></svg>