<?xml version="1.0" standalone="no"?><!DOCTYPE svg PUBLIC "-//W3C//DTD SVG 1.1//EN" "http://www.w3.org/Graphics/SVG/1.1/DTD/svg11.dtd"><svg t="1556871182645" class="icon" style="" viewBox="0 0 1024 1024" version="1.1" xmlns="http://www.w3.org/2000/svg" p-id="6445" xmlns:xlink="http://www.w3.org/1999/xlink" width="200" height="200"><defs><style type="text/css"></style></defs><path d="M512 12.8C236.544 12.8 12.8 236.544 12.8 512s223.232 499.2 499.2 499.2 499.2-223.232 499.2-499.2S787.456 12.8 512 12.8z m0 942.08c-244.224 0-442.88-198.656-442.88-442.88S267.776 69.12 512 69.12s442.88 198.656 442.88 442.88-198.656 442.88-442.88 442.88z" p-id="6446"></path><path d="M743.936 480.768h-200.704V280.064c0-17.408-14.336-31.232-31.232-31.232-17.408 0-31.232 14.336-31.232 31.232v200.704H280.064c-17.408 0-31.232 14.336-31.232 31.232 0 17.408 14.336 31.232 31.232 31.232h200.704v200.704c0 17.408 14.336 31.232 31.232 31.232 17.408 0 31.232-14.336 31.232-31.232v-200.704h200.704c17.408 0 31.232-14.336 31.232-31.232 0-17.408-13.824-31.232-31.232-31.232z" p-id="6447"></path></svg>